<svg width="109" height="67" viewBox="0 0 109 67" fill="none" xmlns="http://www.w3.org/2000/svg">
<path d="M9.144 19.984C3.744 19.984 0.72 16.888 0.72 11.704C0.72 6.592 3.96 3.496 9.324 3.496C12.996 3.496 15.444 4.972 15.948 8.104H16.308V3.856H22.644V18.94C22.644 25.42 18.792 28.48 11.808 28.48C5.472 28.48 1.8 25.816 1.8 21.064H8.568C8.568 22.54 8.748 22.9 12.276 22.9C15.192 22.9 15.876 22.468 15.876 19.408V15.592H15.516C15.048 18.22 13.14 19.984 9.144 19.984ZM7.56 11.704C7.56 13.504 8.424 14.188 11.592 14.188C14.616 14.188 15.876 13.828 15.876 11.92V11.668C15.876 9.724 14.616 9.328 11.592 9.328C8.424 9.328 7.56 9.94 7.56 11.704ZM34.9265 22.36C28.7705 22.36 24.4505 19.732 24.4505 12.928C24.4505 7.024 28.7345 3.496 34.7825 3.496C41.0465 3.496 45.0425 6.628 45.0425 12.46C45.0425 13.072 45.0065 13.54 44.9345 14.188H30.7145C30.8225 16.384 31.7945 16.996 34.6745 16.996C37.4105 16.996 38.1305 16.528 38.1305 15.448V15.052H44.8985V15.484C44.8985 19.516 41.0465 22.36 34.9265 22.36ZM34.6385 8.68C32.1545 8.68 31.1105 9.22 30.8225 10.768H38.4905C38.2385 9.22 37.1585 8.68 34.6385 8.68ZM60.4254 22H55.6734C51.1374 22 48.4374 19.804 48.4374 15.088V9.4H45.7734V3.856H48.4374V0.723999H55.2054V3.856H60.4254V9.4H55.2054V14.116C55.2054 15.556 55.6374 15.916 57.1854 15.916H60.4254V22Z" fill="white"/>
<path d="M7.848 66H1.08V41.88H7.848V66ZM16.7777 46.2H10.0097V41.88H16.7777V46.2ZM16.7777 66H10.0097V47.856H16.7777V66ZM25.7074 66H18.9394V47.856H25.2754V53.364H25.6354C26.0314 50.34 28.0114 47.496 32.8714 47.496C37.7674 47.496 40.0714 50.448 40.0714 54.372V66H33.3034V56.856C33.3034 54.336 32.3674 53.544 29.4154 53.544C26.4274 53.544 25.7074 54.3 25.7074 56.64V66ZM48.8402 66H42.0722V41.88H48.8402V54.156H52.0442L56.0402 47.856H64.0322L57.5882 56.676L63.9242 66H55.9322L52.1162 60.204H48.8402V66ZM74.864 66.36C68.708 66.36 64.388 63.732 64.388 56.928C64.388 51.024 68.672 47.496 74.72 47.496C80.984 47.496 84.98 50.628 84.98 56.46C84.98 57.072 84.944 57.54 84.872 58.188H70.652C70.76 60.384 71.732 60.996 74.612 60.996C77.348 60.996 78.068 60.528 78.068 59.448V59.052H84.836V59.484C84.836 63.516 80.984 66.36 74.864 66.36ZM74.576 52.68C72.092 52.68 71.048 53.22 70.76 54.768H78.428C78.176 53.22 77.096 52.68 74.576 52.68ZM95.0349 66.36C89.4909 66.36 86.4309 62.796 86.4309 56.928C86.4309 51.024 89.4189 47.496 94.7469 47.496C99.0309 47.496 101.047 49.512 101.587 52.536H101.947V41.88H108.715V66H102.379V61.104H102.019C101.443 64.704 99.2829 66.36 95.0349 66.36ZM93.2709 56.928C93.2709 59.34 94.3509 60.168 97.4829 60.168C100.507 60.168 101.947 59.592 101.947 56.964V56.712C101.947 54.156 100.507 53.652 97.4829 53.652C94.3509 53.652 93.2709 54.516 93.2709 56.928Z" fill="#D434FE"/>
</svg>
